<svg xmlns="http://www.w3.org/2000/svg" version="1.1" xmlns:xlink="http://www.w3.org/1999/xlink" width="512" height="512" x="0" y="0" viewBox="0 0 456.556 456.556" style="enable-background:new 0 0 512 512" xml:space="preserve" class=""><g><path d="M335.025 312.746a13.396 13.396 0 0 1-9.498-3.934c-5.238-5.242-5.238-13.746 0-18.988l48.124-48.117h-191.63c-7.413 0-13.428-6.011-13.428-13.428s6.015-13.428 13.428-13.428h190.833l-47.404-48.194c-5.182-5.273-5.133-13.746.119-18.953 5.238-5.203 13.715-5.196 18.953.042l71.043 71.04a13.427 13.427 0 0 1 0 18.988l-71.043 71.04a13.405 13.405 0 0 1-9.497 3.932z" fill="#000000" opacity="1" data-original="#000000" class=""></path><path d="M311.441 456.556H50.488c-7.413 0-13.428-6.011-13.428-13.428v-429.7C37.06 6.011 43.075 0 50.488 0h260.953c7.413 0 13.428 6.011 13.428 13.428v78.638c0 7.417-6.015 13.428-13.428 13.428-7.413 0-13.428-6.011-13.428-13.428v-65.21H63.916V429.7h234.097v-65.21c0-7.417 6.015-13.428 13.428-13.428 7.413 0 13.428 6.011 13.428 13.428v78.638c.001 7.417-6.014 13.428-13.428 13.428z" fill="#000000" opacity="1" data-original="#000000" class=""></path></g></svg>